<svg width="38" height="36" viewBox="0 0 38 36" fill="none" xmlns="http://www.w3.org/2000/svg">
<path fill-rule="evenodd" clip-rule="evenodd" d="M28.5111 18.2827C28.7293 16.7838 28.2543 15.5303 27.7243 14.8126L28.8272 11.9141L32.7111 2.78314C33.5492 4.84669 34.3289 10.3169 30.7426 15.6895C29.7425 17.1877 29.0214 17.9776 28.5111 18.2827Z" fill="url(#paint0_linear_4352_6251)"/>
<path fill-rule="evenodd" clip-rule="evenodd" d="M28.5335 18.1081C28.5271 18.1658 28.5196 18.2239 28.5111 18.2823C28.5558 18.2556 28.6021 18.2252 28.6501 18.1908C29.1498 17.8333 29.83 17.0561 30.7423 15.6894C34.234 10.4584 33.5869 5.13486 32.7768 2.95323C32.7549 2.89418 32.7328 2.83743 32.7108 2.78305L28.8303 11.9061L27.7243 14.8125C28.2336 15.5022 28.6921 16.6866 28.5335 18.1081ZM28.6695 18.0088C29.1402 17.6404 29.7829 16.8933 30.6416 15.6069C34.0415 10.5136 33.4787 5.33844 32.7038 3.12483L28.9447 11.9627L27.8687 14.7904C28.3633 15.4937 28.7921 16.6405 28.6695 18.0088Z" fill="url(#paint1_linear_4352_6251)"/>
<g filter="url(#filter0_d_4352_6251)">
<path fill-rule="evenodd" clip-rule="evenodd" d="M27.74 20.367C28.6903 18.7098 28.6682 17.1701 28.3106 16.0377L34.1929 8.82919C34.0528 12.4337 32.5756 19.7864 27.7876 20.3613C27.7717 20.3633 27.7558 20.3651 27.74 20.367Z" fill="url(#paint2_linear_4352_6251)"/>
</g>
<path fill-rule="evenodd" clip-rule="evenodd" d="M27.8371 20.2501C27.8277 20.2674 27.8181 20.2848 27.8084 20.3021C27.7949 20.3263 27.7812 20.3505 27.7673 20.3748C27.7831 20.3729 27.799 20.3711 27.815 20.3691C27.8434 20.3657 27.8717 20.3621 27.8998 20.3582C32.5417 19.718 34.0314 12.6613 34.2121 9.01932C34.2152 8.95755 34.2179 8.89676 34.2202 8.837L28.3379 16.0456C28.6865 17.1495 28.7163 18.6404 27.8371 20.2501ZM27.9686 20.2315C30.2172 19.8811 31.7103 17.98 32.6658 15.6906C33.5866 13.4847 33.9972 10.9418 34.1002 9.15648L28.4565 16.0726C28.79 17.1819 28.8051 18.6517 27.9686 20.2315Z" fill="url(#paint3_linear_4352_6251)"/>
<path d="M30.8544 16.881L28.6199 18.4666L28.4839 19.0465L30.8544 16.881Z" fill="url(#paint4_linear_4352_6251)"/>
<g filter="url(#filter1_d_4352_6251)">
<path fill-rule="evenodd" clip-rule="evenodd" d="M25.8357 22.659C27.3302 21.356 28.0887 20.0454 28.3958 18.8569L33.8566 14.4373C33.5432 17.6363 31.4996 23.7119 25.8357 22.659Z" fill="url(#paint5_linear_4352_6251)"/>
</g>
<path fill-rule="evenodd" clip-rule="evenodd" d="M25.8357 22.659C25.8826 22.6677 25.9292 22.676 25.9755 22.6837C31.4432 23.5965 33.4796 17.8027 33.8401 14.5938C33.846 14.5409 33.8515 14.4887 33.8566 14.4373L28.3958 18.8568C28.0963 20.0158 27.3677 21.2908 25.946 22.5617C25.9097 22.5941 25.8729 22.6266 25.8357 22.659ZM26.0859 22.5846C28.7476 22.9937 30.5671 21.7807 31.7703 20.0715C32.9458 18.4016 33.5324 16.2567 33.7238 14.6879L28.4861 18.9269C28.179 20.0821 27.457 21.3377 26.0859 22.5846Z" fill="url(#paint6_linear_4352_6251)"/>
<path d="M31.1122 19.4325L27.7546 20.4061L27.4971 20.8685L31.1122 19.4325Z" fill="url(#paint7_linear_4352_6251)"/>
<g filter="url(#filter2_d_4352_6251)">
<path fill-rule="evenodd" clip-rule="evenodd" d="M27.5999 20.6551C26.9314 21.7065 25.863 22.7981 24.2356 23.8575C23.6063 24.2672 23.0642 24.6504 22.5994 25.0083L22.5567 25.0476C30.3314 25.5663 32.8305 21.072 33.1189 18.7143L27.5999 20.6551Z" fill="url(#paint8_linear_4352_6251)"/>
</g>
<path fill-rule="evenodd" clip-rule="evenodd" d="M33.1022 18.6596L33.1338 18.7698L27.6313 20.7047C26.9569 21.7595 25.8849 22.8506 24.261 23.9077C23.6331 24.3165 23.0924 24.6986 22.6291 25.0553L22.5696 24.9604C23.0354 24.6018 23.5783 24.218 24.2081 23.808C25.8307 22.7517 26.8929 21.6653 27.5561 20.6222L27.5662 20.6063L33.1022 18.6596Z" fill="url(#paint9_linear_4352_6251)"/>
<path d="M27.7915 23.5925L25.955 22.5276L25.5851 22.8339L27.7915 23.5925Z" fill="url(#paint10_linear_4352_6251)"/>
<path fill-rule="evenodd" clip-rule="evenodd" d="M25.8069 22.6836C25.3528 23.077 24.8315 23.4696 24.235 23.8579C22.7685 24.8126 21.7755 25.6234 21.1317 26.3055C21.2112 26.512 21.6533 26.4883 22.3203 26.0541C23.6723 25.174 24.8696 25.0266 26.9768 25.1508C29.0244 25.2715 29.6582 25.028 30.0225 24.6218C29.1877 24.2168 27.0993 23.2555 25.8069 22.6836Z" fill="url(#paint11_linear_4352_6251)"/>
<path fill-rule="evenodd" clip-rule="evenodd" d="M25.8238 22.8156C25.377 23.1987 24.8673 23.5804 24.2879 23.9576C22.8867 24.8697 21.9234 25.6474 21.286 26.3033C21.3295 26.3171 21.3966 26.3215 21.4899 26.3058C21.676 26.2744 21.9404 26.1673 22.2674 25.9544C23.6456 25.0572 24.8676 24.9107 26.9824 25.0354C28.8098 25.1431 29.4752 24.9561 29.8305 24.6554C28.9315 24.2244 27.046 23.3575 25.8238 22.8156ZM25.8069 22.6836C25.3528 23.077 24.8315 23.4696 24.235 23.8579C22.7685 24.8126 21.7755 25.6234 21.1317 26.3055C21.2112 26.512 21.6533 26.4883 22.3203 26.0541C23.6723 25.174 24.8696 25.0266 26.9768 25.1508C28.8762 25.2628 29.559 25.0614 29.9387 24.7074C29.9684 24.6798 29.9962 24.6512 30.0225 24.6218C29.99 24.606 29.9555 24.5894 29.9192 24.5719C29.0259 24.1424 27.0488 23.2332 25.8069 22.6836Z" fill="url(#paint12_linear_4352_6251)"/>
<path d="M27.8555 14.5742C28.3568 15.2962 28.9868 16.7403 28.7475 17.761" stroke="url(#paint13_linear_4352_6251)" stroke-width="0.585716"/>
<g filter="url(#filter3_d_4352_6251)">
<path d="M24.5158 23.8885C29.8151 19.7181 29.1583 16.6403 27.8806 14.6218L27.8185 14.7278C28.9616 17.1614 29.0278 19.7392 24.1696 23.4587C17.7653 27.9891 18.6704 29.5939 18.7711 30.118C18.8516 30.5374 19.2234 30.4133 19.3993 30.2988C19.5225 29.1374 19.6793 28.1508 24.5158 23.8885Z" fill="url(#paint14_linear_4352_6251)"/>
<path d="M24.5158 23.8885C29.8151 19.7181 29.1583 16.6403 27.8806 14.6218L27.8185 14.7278C29.2163 17.0284 29.3949 19.7623 24.1696 23.4587C17.7653 27.9891 18.6704 29.5939 18.7711 30.118C18.8516 30.5374 19.2234 30.4133 19.3993 30.2988C18.8066 29.7018 19.3099 27.9855 24.5158 23.8885Z" fill="#C4C4C4"/>
<path fill-rule="evenodd" clip-rule="evenodd" d="M24.1694 23.4584C24.3762 23.4946 24.6952 23.5242 24.9993 23.5136C26.0746 22.6164 26.8771 21.7613 27.4502 20.9785C27.5409 20.8392 27.6346 20.7122 27.7088 20.5974C27.6007 20.5663 27.4286 20.5853 27.2356 20.7089C26.5349 21.5591 25.5445 22.484 24.1694 23.4584Z" fill="url(#paint15_linear_4352_6251)"/>
</g>
<path fill-rule="evenodd" clip-rule="evenodd" d="M9.48696 18.2807C9.26872 16.7818 9.74379 15.5283 10.2737 14.8106L9.17082 11.9122L5.28697 2.78119C4.44884 4.84473 3.66916 10.315 7.25543 15.6875C8.25551 17.1857 8.97666 17.9756 9.48696 18.2807Z" fill="url(#paint16_linear_4352_6251)"/>
<path fill-rule="evenodd" clip-rule="evenodd" d="M9.46451 18.1061C9.47095 18.1638 9.4784 18.2219 9.48691 18.2804C9.44223 18.2537 9.39592 18.2232 9.34795 18.1889C8.8482 17.8314 8.16803 17.0541 7.25575 15.6874C3.764 10.4565 4.4111 5.13291 5.22123 2.95128C5.24316 2.89223 5.2652 2.83548 5.28729 2.78109L9.16779 11.9042L10.2737 14.8106C9.76449 15.5002 9.30591 16.6847 9.46451 18.1061ZM9.32851 18.0069C8.85788 17.6385 8.21516 16.8914 7.35646 15.6049C3.95657 10.5116 4.51931 5.33649 5.29421 3.12287L9.05338 11.9607L10.1294 14.7885C9.63479 15.4918 9.20593 16.6386 9.32851 18.0069Z" fill="url(#paint17_linear_4352_6251)"/>
<g filter="url(#filter4_d_4352_6251)">
<path fill-rule="evenodd" clip-rule="evenodd" d="M10.2583 20.367C9.30798 18.7099 9.33002 17.1703 9.68751 16.0379L3.8051 8.82921C3.94518 12.4337 5.42232 19.7864 10.2103 20.3613C10.2264 20.3632 10.2424 20.3651 10.2583 20.367Z" fill="url(#paint18_linear_4352_6251)"/>
</g>
<path fill-rule="evenodd" clip-rule="evenodd" d="M10.1609 20.2501C10.1704 20.2674 10.18 20.2848 10.1896 20.3021C10.2031 20.3263 10.2168 20.3505 10.2307 20.3748C10.2149 20.3729 10.199 20.3711 10.1831 20.3691C10.1547 20.3657 10.1264 20.3621 10.0982 20.3582C5.4563 19.718 3.96669 12.6613 3.78591 9.01932C3.78284 8.95755 3.78015 8.89676 3.77783 8.837L9.66013 16.0456C9.31153 17.1495 9.28174 18.6404 10.1609 20.2501ZM10.0294 20.2315C7.78089 19.8811 6.28777 17.98 5.33221 15.6906C4.41146 13.4847 4.00089 10.9418 3.89783 9.15648L9.54151 16.0726C9.20809 17.1819 9.19293 18.6517 10.0294 20.2315Z" fill="url(#paint19_linear_4352_6251)"/>
<path d="M7.14369 16.881L9.37815 18.4666L9.51412 19.0465L7.14369 16.881Z" fill="url(#paint20_linear_4352_6251)"/>
<g filter="url(#filter5_d_4352_6251)">
<path fill-rule="evenodd" clip-rule="evenodd" d="M12.1623 22.659C10.6679 21.356 9.90938 20.0454 9.60225 18.8569L4.14144 14.4373C4.45484 17.6363 6.4984 23.7119 12.1623 22.659Z" fill="url(#paint21_linear_4352_6251)"/>
</g>
<path fill-rule="evenodd" clip-rule="evenodd" d="M12.1623 22.659C12.1155 22.6677 12.0689 22.676 12.0225 22.6837C6.55486 23.5965 4.51849 17.8027 4.15796 14.5938C4.15201 14.5409 4.14653 14.4887 4.14149 14.4373L9.60225 18.8568C9.90172 20.0158 10.6303 21.2908 12.0521 22.5617C12.0884 22.5941 12.1251 22.6266 12.1623 22.659ZM11.9121 22.5846C9.25045 22.9937 7.43095 21.7807 6.22778 20.0715C5.05225 18.4016 4.46566 16.2567 4.27423 14.6879L9.51194 18.9269C9.819 20.0821 10.5411 21.3377 11.9121 22.5846Z" fill="url(#paint22_linear_4352_6251)"/>
<path d="M6.88587 19.4305L10.2435 20.4041L10.5009 20.8665L6.88587 19.4305Z" fill="url(#paint23_linear_4352_6251)"/>
<g filter="url(#filter6_d_4352_6251)">
<path fill-rule="evenodd" clip-rule="evenodd" d="M10.3982 20.6551C11.0667 21.7065 12.135 22.7981 13.7624 23.8575C14.3918 24.2672 14.9339 24.6504 15.3987 25.0083L15.4414 25.0476C7.6666 25.5663 5.16754 21.072 4.87914 18.7143L10.3982 20.6551Z" fill="url(#paint24_linear_4352_6251)"/>
</g>
<path fill-rule="evenodd" clip-rule="evenodd" d="M4.8958 18.6596L4.86422 18.7698L10.3668 20.7047C11.0412 21.7595 12.1131 22.8506 13.737 23.9077C14.365 24.3165 14.9056 24.6986 15.3689 25.0554L15.4285 24.9604C14.9627 24.6018 14.4197 24.218 13.7899 23.808C12.1673 22.7517 11.1052 21.6653 10.4419 20.6222L10.4318 20.6063L4.8958 18.6596Z" fill="url(#paint25_linear_4352_6251)"/>
<path d="M10.2065 23.5925L12.0431 22.5276L12.4129 22.8339L10.2065 23.5925Z" fill="url(#paint26_linear_4352_6251)"/>
<path fill-rule="evenodd" clip-rule="evenodd" d="M12.1911 22.6836C12.6452 23.077 13.1666 23.4696 13.763 23.8579C15.2295 24.8126 16.2226 25.6234 16.8664 26.3055C16.7869 26.512 16.3448 26.4883 15.6778 26.0541C14.3257 25.174 13.1284 25.0266 11.0212 25.1508C8.9736 25.2715 8.33986 25.028 7.97551 24.6218C8.8104 24.2168 10.8988 23.2555 12.1911 22.6836Z" fill="url(#paint27_linear_4352_6251)"/>
<path fill-rule="evenodd" clip-rule="evenodd" d="M12.1743 22.8156C12.6211 23.1987 13.1307 23.5804 13.7102 23.9576C15.1114 24.8697 16.0747 25.6474 16.7121 26.3033C16.6686 26.3171 16.6014 26.3215 16.5081 26.3058C16.3221 26.2744 16.0577 26.1673 15.7306 25.9544C14.3524 25.0572 13.1305 24.9107 11.0157 25.0354C9.18825 25.1431 8.52285 24.9561 8.1675 24.6554C9.06654 24.2244 10.952 23.3575 12.1743 22.8156ZM12.1911 22.6836C12.6452 23.077 13.1666 23.4696 13.763 23.8579C15.2295 24.8126 16.2226 25.6234 16.8664 26.3055C16.7869 26.512 16.3448 26.4883 15.6778 26.0541C14.3257 25.174 13.1284 25.0266 11.0212 25.1508C9.12186 25.2628 8.43904 25.0614 8.05933 24.7074C8.02969 24.6798 8.00189 24.6512 7.97551 24.6218C8.00809 24.606 8.04258 24.5894 8.07885 24.5719C8.97216 24.1424 10.9492 23.2332 12.1911 22.6836Z" fill="url(#paint28_linear_4352_6251)"/>
<path fill-rule="evenodd" clip-rule="evenodd" d="M9.47954 16.0798C9.66748 15.508 9.94706 14.9729 10.1937 14.6177L10.0908 14.53C9.83621 14.8967 9.55014 15.4447 9.35757 16.0306C9.16556 16.6148 9.06294 17.2476 9.18746 17.7787L9.3131 17.7425C9.19832 17.253 9.29104 16.6534 9.47954 16.0798Z" fill="url(#paint29_linear_4352_6251)"/>
<g filter="url(#filter7_d_4352_6251)">
<path d="M13.4822 23.8905C8.18297 19.72 8.83974 16.6422 10.1174 14.6238L10.1795 14.7297C9.03644 17.1634 8.97025 19.7411 13.8285 23.4607C20.2328 27.9911 19.3276 29.5958 19.227 30.12C19.1465 30.5393 18.7746 30.4152 18.5988 30.3007C18.4755 29.1394 18.3187 28.1528 13.4822 23.8905Z" fill="url(#paint30_linear_4352_6251)"/>
<path d="M13.4822 23.8905C8.18297 19.72 8.83974 16.6422 10.1174 14.6238L10.1795 14.7297C8.78172 17.0303 8.60312 19.7642 13.8285 23.4607C20.2328 27.9911 19.3276 29.5958 19.227 30.12C19.1465 30.5393 18.7746 30.4152 18.5988 30.3007C19.1915 29.7038 18.6882 27.9875 13.4822 23.8905Z" fill="#C4C4C4"/>
<path fill-rule="evenodd" clip-rule="evenodd" d="M13.8286 23.4603C13.6218 23.4965 13.3028 23.5261 12.9988 23.5156C11.9234 22.6183 11.121 21.7632 10.5479 20.9804C10.4572 20.8412 10.3635 20.7142 10.2893 20.5994C10.3973 20.5683 10.5695 20.5872 10.7625 20.7108C11.4632 21.5611 12.4536 22.486 13.8286 23.4603Z" fill="url(#paint31_linear_4352_6251)"/>
</g>
<g filter="url(#filter8_d_4352_6251)">
<path d="M18.3085 3.78955L9.07785 9.35186C8.61457 9.63103 8.32617 10.1685 8.32617 10.7527L8.32617 23.4667C8.32617 24.051 8.61457 24.5884 9.07785 24.8676L18.3085 30.4299C18.7375 30.6884 19.2554 30.6884 19.6843 30.4299L28.915 24.8676C29.3783 24.5884 29.6667 24.051 29.6667 23.4667L29.6667 10.7527C29.6667 10.1685 29.3783 9.63103 28.915 9.35186L19.6843 3.78955C19.2554 3.53109 18.7375 3.53109 18.3085 3.78955Z" fill="url(#paint32_linear_4352_6251)"/>
<path d="M18.2976 5.86889L10.6961 10.4494C10.2346 10.7276 9.94727 11.263 9.94727 11.845L9.94727 22.328C9.94727 22.91 10.2346 23.4454 10.6961 23.7236L18.2976 28.3041C18.7249 28.5616 19.2408 28.5616 19.6681 28.3041L27.2696 23.7236C27.7311 23.4454 28.0184 22.91 28.0184 22.328L28.0184 11.845C28.0184 11.263 27.7311 10.7276 27.2696 10.4494L19.6681 5.86889C19.2408 5.61141 18.7249 5.61141 18.2976 5.86889Z" fill="url(#paint33_linear_4352_6251)"/>
<g filter="url(#filter9_f_4352_6251)">
<path fill-rule="evenodd" clip-rule="evenodd" d="M19.6492 5.91012C19.2345 5.66024 18.7338 5.66024 18.3191 5.91012L10.7177 10.4907C10.2698 10.7606 9.99093 11.2802 9.99093 11.8451L9.99093 22.328C9.99093 22.8928 10.2698 23.4125 10.7177 23.6824L18.3191 28.2629C18.7338 28.5128 19.2345 28.5128 19.6492 28.2629L27.2507 23.6824C27.6986 23.4125 27.9774 22.8928 27.9774 22.328L27.9774 11.8451C27.9774 11.2802 27.6986 10.7606 27.2507 10.4907L19.6492 5.91012ZM18.2787 5.82772C18.7186 5.56264 19.2498 5.56263 19.6897 5.82772L27.2911 10.4083C27.7663 10.6946 28.0621 11.2458 28.0621 11.8451L28.0621 22.328C28.0621 22.9272 27.7663 23.4785 27.2911 23.7648L19.6897 28.3453C19.2498 28.6104 18.7186 28.6104 18.2787 28.3453L10.6772 23.7648C10.202 23.4785 9.90625 22.9272 9.90625 22.328L9.90625 11.8451C9.90625 11.2458 10.202 10.6946 10.6772 10.4083L18.2787 5.82772Z" fill="url(#paint34_linear_4352_6251)"/>
</g>
<g opacity="0.5">
<mask id="mask0_4352_6251" style="mask-type:alpha" maskUnits="userSpaceOnUse" x="10" y="6" width="18" height="22">
<path d="M18.3882 6.7928L11.4296 10.9822C10.9903 11.2467 10.7168 11.7562 10.7168 12.31L10.7168 21.8981C10.7168 22.4519 10.9903 22.9614 11.4296 23.2259L18.3882 27.4153C18.7944 27.6599 19.2848 27.6599 19.691 27.4153L26.6496 23.2259C27.0889 22.9614 27.3624 22.4519 27.3624 21.8981L27.3624 12.31C27.3624 11.7562 27.0889 11.2467 26.6496 10.9822L19.691 6.79279C19.2848 6.54823 18.7944 6.54824 18.3882 6.7928Z" fill="#A6D3DE"/>
</mask>
<g mask="url(#mask0_4352_6251)">
<path d="M18.3882 6.7928L11.4296 10.9822C10.9903 11.2467 10.7168 11.7562 10.7168 12.31L10.7168 21.8981C10.7168 22.4519 10.9903 22.9614 11.4296 23.2259L18.3882 27.4153C18.7944 27.6599 19.2848 27.6599 19.691 27.4153L26.6496 23.2259C27.0889 22.9614 27.3624 22.4519 27.3624 21.8981L27.3624 12.31C27.3624 11.7562 27.0889 11.2467 26.6496 10.9822L19.691 6.79279C19.2848 6.54823 18.7944 6.54824 18.3882 6.7928Z" fill="url(#paint35_radial_4352_6251)"/>
<path opacity="0.5" d="M17.649 28.2301L17.3184 5.97656H20.7623L20.4317 28.2301H17.649Z" fill="url(#paint36_linear_4352_6251)"/>
<path opacity="0.5" d="M17.6045 28.0324L7.27344 8.94336L10.256 7.03591L20.0144 26.4912L17.6045 28.0324Z" fill="url(#paint37_linear_4352_6251)"/>
<path opacity="0.5" d="M17.3177 26.4924L27.0762 7.03711L30.0587 8.94456L19.7276 28.0336L17.3177 26.4924Z" fill="url(#paint38_linear_4352_6251)"/>
<path d="M10.7168 15.832H27.3624V27.8066H10.7168V15.832Z" fill="url(#paint39_linear_4352_6251)"/>
<g filter="url(#filter10_i_4352_6251)">
<path d="M18.3882 6.7928L11.4296 10.9822C10.9903 11.2467 10.7168 11.7562 10.7168 12.31L10.7168 21.8981C10.7168 22.4519 10.9903 22.9614 11.4296 23.2259L18.3882 27.4153C18.7944 27.6599 19.2848 27.6599 19.691 27.4153L26.6496 23.2259C27.0889 22.9614 27.3624 22.4519 27.3624 21.8981L27.3624 12.31C27.3624 11.7562 27.0889 11.2467 26.6496 10.9822L19.691 6.79279C19.2848 6.54823 18.7944 6.54824 18.3882 6.7928Z" fill="#6052B4" fill-opacity="0.01"/>
</g>
</g>
</g>
</g>
<path d="M16.3277 21.1089V19.5943L19.1224 16.874C20.1123 15.9047 20.3037 15.5048 20.3037 14.9595V14.9474C20.3037 14.3295 19.8717 13.8872 19.2537 13.8872C18.5427 13.8872 18.0888 14.39 18.056 15.0928L18.0505 15.1595H16.2129V15.1049C16.2129 13.3904 17.4708 12.209 19.2482 12.209C21.042 12.209 22.2452 13.2692 22.2452 14.8202V14.8323C22.2452 15.9471 21.7585 16.6196 20.4514 17.8737L18.9091 19.3277V19.4004H22.3437V21.1089H16.3277Z" fill="#7D7F97"/>
<defs>
<filter id="filter0_d_4352_6251" x="25.8564" y="7.57422" width="8.96484" height="14.0488" filterUnits="userSpaceOnUse" color-interpolation-filters="sRGB">
<feFlood flood-opacity="0" result="BackgroundImageFix"/>
<feColorMatrix in="SourceAlpha" type="matrix" values="0 0 0 0 0 0 0 0 0 0 0 0 0 0 0 0 0 0 127 0" result="hardAlpha"/>
<feOffset dx="-0.627929"/>
<feGaussianBlur stdDeviation="0.627929"/>
<feColorMatrix type="matrix" values="0 0 0 0 0.446731 0 0 0 0 0.444028 0 0 0 0 0.579167 0 0 0 0.12 0"/>
<feBlend mode="normal" in2="BackgroundImageFix" result="effect1_dropShadow_4352_6251"/>
<feBlend mode="normal" in="SourceGraphic" in2="effect1_dropShadow_4352_6251" result="shape"/>
</filter>
<filter id="filter1_d_4352_6251" x="23.9522" y="13.1816" width="10.5332" height="10.8535" filterUnits="userSpaceOnUse" color-interpolation-filters="sRGB">
<feFlood flood-opacity="0" result="BackgroundImageFix"/>
<feColorMatrix in="SourceAlpha" type="matrix" values="0 0 0 0 0 0 0 0 0 0 0 0 0 0 0 0 0 0 127 0" result="hardAlpha"/>
<feOffset dx="-0.627929"/>
<feGaussianBlur stdDeviation="0.627929"/>
<feColorMatrix type="matrix" values="0 0 0 0 0.446731 0 0 0 0 0.444028 0 0 0 0 0.579167 0 0 0 0.12 0"/>
<feBlend mode="normal" in2="BackgroundImageFix" result="effect1_dropShadow_4352_6251"/>
<feBlend mode="normal" in="SourceGraphic" in2="effect1_dropShadow_4352_6251" result="shape"/>
</filter>
<filter id="filter2_d_4352_6251" x="19.417" y="14.9244" width="16.8418" height="12.6543" filterUnits="userSpaceOnUse" color-interpolation-filters="sRGB">
<feFlood flood-opacity="0" result="BackgroundImageFix"/>
<feColorMatrix in="SourceAlpha" type="matrix" values="0 0 0 0 0 0 0 0 0 0 0 0 0 0 0 0 0 0 127 0" result="hardAlpha"/>
<feOffset dy="-0.650795"/>
<feGaussianBlur stdDeviation="1.56982"/>
<feColorMatrix type="matrix" values="0 0 0 0 0.365689 0 0 0 0 0.351111 0 0 0 0 0.533333 0 0 0 0.2 0"/>
<feBlend mode="normal" in2="BackgroundImageFix" result="effect1_dropShadow_4352_6251"/>
<feBlend mode="normal" in="SourceGraphic" in2="effect1_dropShadow_4352_6251" result="shape"/>
</filter>
<filter id="filter3_d_4352_6251" x="18.0211" y="14.6211" width="12.0559" height="17.7395" filterUnits="userSpaceOnUse" color-interpolation-filters="sRGB">
<feFlood flood-opacity="0" result="BackgroundImageFix"/>
<feColorMatrix in="SourceAlpha" type="matrix" values="0 0 0 0 0 0 0 0 0 0 0 0 0 0 0 0 0 0 127 0" result="hardAlpha"/>
<feOffset dx="0.325398" dy="0.976193"/>
<feGaussianBlur stdDeviation="0.488096"/>
<feColorMatrix type="matrix" values="0 0 0 0 0.513819 0 0 0 0 0.518433 0 0 0 0 0.629167 0 0 0 0.5 0"/>
<feBlend mode="normal" in2="BackgroundImageFix" result="effect1_dropShadow_4352_6251"/>
<feBlend mode="normal" in="SourceGraphic" in2="effect1_dropShadow_4352_6251" result="shape"/>
</filter>
<filter id="filter4_d_4352_6251" x="1.9209" y="7.57422" width="8.96484" height="14.0488" filterUnits="userSpaceOnUse" color-interpolation-filters="sRGB">
<feFlood flood-opacity="0" result="BackgroundImageFix"/>
<feColorMatrix in="SourceAlpha" type="matrix" values="0 0 0 0 0 0 0 0 0 0 0 0 0 0 0 0 0 0 127 0" result="hardAlpha"/>
<feOffset dx="-0.627929"/>
<feGaussianBlur stdDeviation="0.627929"/>
<feColorMatrix type="matrix" values="0 0 0 0 0.446731 0 0 0 0 0.444028 0 0 0 0 0.579167 0 0 0 0.12 0"/>
<feBlend mode="normal" in2="BackgroundImageFix" result="effect1_dropShadow_4352_6251"/>
<feBlend mode="normal" in="SourceGraphic" in2="effect1_dropShadow_4352_6251" result="shape"/>
</filter>
<filter id="filter5_d_4352_6251" x="2.25684" y="13.1816" width="10.5332" height="10.8535" filterUnits="userSpaceOnUse" color-interpolation-filters="sRGB">
<feFlood flood-opacity="0" result="BackgroundImageFix"/>
<feColorMatrix in="SourceAlpha" type="matrix" values="0 0 0 0 0 0 0 0 0 0 0 0 0 0 0 0 0 0 127 0" result="hardAlpha"/>
<feOffset dx="-0.627929"/>
<feGaussianBlur stdDeviation="0.627929"/>
<feColorMatrix type="matrix" values="0 0 0 0 0.446731 0 0 0 0 0.444028 0 0 0 0 0.579167 0 0 0 0.12 0"/>
<feBlend mode="normal" in2="BackgroundImageFix" result="effect1_dropShadow_4352_6251"/>
<feBlend mode="normal" in="SourceGraphic" in2="effect1_dropShadow_4352_6251" result="shape"/>
</filter>
<filter id="filter6_d_4352_6251" x="1.73926" y="14.9244" width="16.8418" height="12.6543" filterUnits="userSpaceOnUse" color-interpolation-filters="sRGB">
<feFlood flood-opacity="0" result="BackgroundImageFix"/>
<feColorMatrix in="SourceAlpha" type="matrix" values="0 0 0 0 0 0 0 0 0 0 0 0 0 0 0 0 0 0 127 0" result="hardAlpha"/>
<feOffset dy="-0.650795"/>
<feGaussianBlur stdDeviation="1.56982"/>
<feColorMatrix type="matrix" values="0 0 0 0 0.365689 0 0 0 0 0.351111 0 0 0 0 0.533333 0 0 0 0.2 0"/>
<feBlend mode="normal" in2="BackgroundImageFix" result="effect1_dropShadow_4352_6251"/>
<feBlend mode="normal" in="SourceGraphic" in2="effect1_dropShadow_4352_6251" result="shape"/>
</filter>
<filter id="filter7_d_4352_6251" x="8.57186" y="14.623" width="12.0559" height="17.7395" filterUnits="userSpaceOnUse" color-interpolation-filters="sRGB">
<feFlood flood-opacity="0" result="BackgroundImageFix"/>
<feColorMatrix in="SourceAlpha" type="matrix" values="0 0 0 0 0 0 0 0 0 0 0 0 0 0 0 0 0 0 127 0" result="hardAlpha"/>
<feOffset dx="0.325398" dy="0.976193"/>
<feGaussianBlur stdDeviation="0.488096"/>
<feColorMatrix type="matrix" values="0 0 0 0 0.513819 0 0 0 0 0.518433 0 0 0 0 0.629167 0 0 0 0.5 0"/>
<feBlend mode="normal" in2="BackgroundImageFix" result="effect1_dropShadow_4352_6251"/>
<feBlend mode="normal" in="SourceGraphic" in2="effect1_dropShadow_4352_6251" result="shape"/>
</filter>
<filter id="filter8_d_4352_6251" x="6.03362" y="3.5957" width="25.9249" height="32.3766" filterUnits="userSpaceOnUse" color-interpolation-filters="sRGB">
<feFlood flood-opacity="0" result="BackgroundImageFix"/>
<feColorMatrix in="SourceAlpha" type="matrix" values="0 0 0 0 0 0 0 0 0 0 0 0 0 0 0 0 0 0 127 0" result="hardAlpha"/>
<feOffset dy="3.05673"/>
<feGaussianBlur stdDeviation="1.14628"/>
<feColorMatrix type="matrix" values="0 0 0 0 0.141181 0 0 0 0 0.190317 0 0 0 0 0.316667 0 0 0 0.51 0"/>
<feBlend mode="normal" in2="BackgroundImageFix" result="effect1_dropShadow_4352_6251"/>
<feBlend mode="normal" in="SourceGraphic" in2="effect1_dropShadow_4352_6251" result="shape"/>
</filter>
<filter id="filter9_f_4352_6251" x="9.79162" y="5.51428" width="18.3855" height="23.1453" filterUnits="userSpaceOnUse" color-interpolation-filters="sRGB">
<feFlood flood-opacity="0" result="BackgroundImageFix"/>
<feBlend mode="normal" in="SourceGraphic" in2="BackgroundImageFix" result="shape"/>
<feGaussianBlur stdDeviation="0.0573138" result="effect1_foregroundBlur_4352_6251"/>
</filter>
<filter id="filter10_i_4352_6251" x="10.7168" y="6.60938" width="16.6465" height="20.9902" filterUnits="userSpaceOnUse" color-interpolation-filters="sRGB">
<feFlood flood-opacity="0" result="BackgroundImageFix"/>
<feBlend mode="normal" in="SourceGraphic" in2="BackgroundImageFix" result="shape"/>
<feColorMatrix in="SourceAlpha" type="matrix" values="0 0 0 0 0 0 0 0 0 0 0 0 0 0 0 0 0 0 127 0" result="hardAlpha"/>
<feOffset/>
<feGaussianBlur stdDeviation="2.56924"/>
<feComposite in2="hardAlpha" operator="arithmetic" k2="-1" k3="1"/>
<feColorMatrix type="matrix" values="0 0 0 0 0.297222 0 0 0 0 0.329917 0 0 0 0 0.445833 0 0 0 1 0"/>
<feBlend mode="normal" in2="shape" result="effect1_innerShadow_4352_6251"/>
</filter>
<linearGradient id="paint0_linear_4352_6251" x1="32.6266" y1="2.75884" x2="29.7104" y2="13.8848" gradientUnits="userSpaceOnUse">
<stop offset="0.220856" stop-color="#FAFAFA"/>
<stop offset="1" stop-color="#D8D9E1"/>
</linearGradient>
<linearGradient id="paint1_linear_4352_6251" x1="32.6852" y1="2.77569" x2="26.2123" y2="16.5011" gradientUnits="userSpaceOnUse">
<stop stop-color="#F8F8F9" stop-opacity="0.46"/>
<stop offset="0.575358" stop-color="#F8F8F9"/>
<stop offset="0.783289" stop-color="white"/>
<stop offset="0.884809" stop-color="white" stop-opacity="0.19"/>
</linearGradient>
<linearGradient id="paint2_linear_4352_6251" x1="32.3496" y1="8.29883" x2="29.9586" y2="17.2025" gradientUnits="userSpaceOnUse">
<stop offset="0.220856" stop-color="#FAFAFA"/>
<stop offset="1" stop-color="#D8D9E1"/>
</linearGradient>
<linearGradient id="paint3_linear_4352_6251" x1="32.4399" y1="8.32475" x2="27.6552" y2="19.6119" gradientUnits="userSpaceOnUse">
<stop stop-color="#F8F8F9" stop-opacity="0.46"/>
<stop offset="0.292773" stop-color="#F8F8F9" stop-opacity="0.45"/>
<stop offset="0.629289" stop-color="white" stop-opacity="0.51"/>
<stop offset="0.742389" stop-color="white" stop-opacity="0.12"/>
</linearGradient>
<linearGradient id="paint4_linear_4352_6251" x1="29.8258" y1="18.8659" x2="28.4963" y2="18.4966" gradientUnits="userSpaceOnUse">
<stop offset="0.209488" stop-color="#717995"/>
<stop offset="0.583159" stop-color="#A4A5BB"/>
<stop offset="0.986946" stop-color="#797D87"/>
</linearGradient>
<linearGradient id="paint5_linear_4352_6251" x1="30.9694" y1="13.6066" x2="29.0381" y2="20.5898" gradientUnits="userSpaceOnUse">
<stop offset="0.220856" stop-color="#FAFAFA"/>
<stop offset="1" stop-color="#D8D9E1"/>
</linearGradient>
<linearGradient id="paint6_linear_4352_6251" x1="31.0546" y1="13.6311" x2="27.7191" y2="22.7487" gradientUnits="userSpaceOnUse">
<stop stop-color="#F8F8F9" stop-opacity="0.46"/>
<stop offset="0.21882" stop-color="#F8F8F9" stop-opacity="0.67"/>
<stop offset="0.45675" stop-color="white" stop-opacity="0.46"/>
<stop offset="0.742389" stop-color="white" stop-opacity="0"/>
</linearGradient>
<linearGradient id="paint7_linear_4352_6251" x1="29.7479" y1="21.0233" x2="27.4384" y2="20.2768" gradientUnits="userSpaceOnUse">
<stop offset="0.209488" stop-color="#717995"/>
<stop offset="0.583159" stop-color="#A4A5BB"/>
<stop offset="0.986946" stop-color="#797D87"/>
</linearGradient>
<linearGradient id="paint8_linear_4352_6251" x1="28.8575" y1="19.9952" x2="29.4191" y2="23.9414" gradientUnits="userSpaceOnUse">
<stop stop-color="#EFEFEF"/>
<stop offset="0.411026" stop-color="#DEDFE6"/>
<stop offset="0.58979" stop-color="#D1D2D9"/>
<stop offset="1" stop-color="#D1D2D9"/>
</linearGradient>
<linearGradient id="paint9_linear_4352_6251" x1="32.67" y1="19.062" x2="28.3781" y2="23.0364" gradientUnits="userSpaceOnUse">
<stop stop-color="#F8F8F9" stop-opacity="0.86"/>
<stop offset="0.319253" stop-color="#F8F8F9"/>
<stop offset="0.615431" stop-color="white" stop-opacity="0.88"/>
<stop offset="0.867925" stop-color="white"/>
</linearGradient>
<linearGradient id="paint10_linear_4352_6251" x1="27.1396" y1="23.2982" x2="25.6305" y2="22.4678" gradientUnits="userSpaceOnUse">
<stop offset="0.209488" stop-color="#717995"/>
<stop offset="0.583159" stop-color="#A4A5BB"/>
<stop offset="0.986946" stop-color="#797D87"/>
</linearGradient>
<linearGradient id="paint11_linear_4352_6251" x1="26.0654" y1="22.7384" x2="26.3693" y2="27.6222" gradientUnits="userSpaceOnUse">
<stop offset="0.0306468" stop-color="#DBDCE7"/>
<stop offset="0.274204" stop-color="#CBCCD7"/>
<stop offset="0.675444" stop-color="#D1D2D9"/>
</linearGradient>
<linearGradient id="paint12_linear_4352_6251" x1="26.8664" y1="22.9667" x2="24.6296" y2="27.9193" gradientUnits="userSpaceOnUse">
<stop stop-color="#F8F8F9" stop-opacity="0.78"/>
<stop offset="0.319253" stop-color="#F8F8F9" stop-opacity="0"/>
<stop offset="0.615431" stop-color="white" stop-opacity="0"/>
<stop offset="0.867925" stop-color="white" stop-opacity="0"/>
</linearGradient>
<linearGradient id="paint13_linear_4352_6251" x1="28.6316" y1="14.8388" x2="27.864" y2="17.5068" gradientUnits="userSpaceOnUse">
<stop stop-color="white"/>
<stop offset="1" stop-color="white" stop-opacity="0"/>
</linearGradient>
<linearGradient id="paint14_linear_4352_6251" x1="25.9653" y1="14.0708" x2="21.0721" y2="31.0772" gradientUnits="userSpaceOnUse">
<stop stop-color="#C4C4C4"/>
<stop offset="1" stop-color="#63687B"/>
</linearGradient>
<linearGradient id="paint15_linear_4352_6251" x1="26.1412" y1="20.7615" x2="25.6398" y2="23.8654" gradientUnits="userSpaceOnUse">
<stop offset="0.0495744" stop-color="#C4C4C4"/>
<stop offset="0.454268" stop-color="#EDEDED"/>
<stop offset="1" stop-color="#C4C4C4" stop-opacity="0"/>
</linearGradient>
<linearGradient id="paint16_linear_4352_6251" x1="5.37142" y1="2.75689" x2="8.28769" y2="13.8828" gradientUnits="userSpaceOnUse">
<stop offset="0.220856" stop-color="#FAFAFA"/>
<stop offset="1" stop-color="#D8D9E1"/>
</linearGradient>
<linearGradient id="paint17_linear_4352_6251" x1="5.31285" y1="2.77374" x2="11.7857" y2="16.4992" gradientUnits="userSpaceOnUse">
<stop stop-color="#F8F8F9" stop-opacity="0.46"/>
<stop offset="0.575358" stop-color="#F8F8F9"/>
<stop offset="0.783289" stop-color="white"/>
<stop offset="0.884809" stop-color="white" stop-opacity="0.19"/>
</linearGradient>
<linearGradient id="paint18_linear_4352_6251" x1="5.64843" y1="8.29884" x2="8.03941" y2="17.2026" gradientUnits="userSpaceOnUse">
<stop offset="0.220856" stop-color="#FAFAFA"/>
<stop offset="1" stop-color="#D8D9E1"/>
</linearGradient>
<linearGradient id="paint19_linear_4352_6251" x1="5.55819" y1="8.32475" x2="10.3429" y2="19.6119" gradientUnits="userSpaceOnUse">
<stop stop-color="#F8F8F9" stop-opacity="0.46"/>
<stop offset="0.292773" stop-color="#F8F8F9" stop-opacity="0.45"/>
<stop offset="0.629289" stop-color="white" stop-opacity="0.51"/>
<stop offset="0.742389" stop-color="white" stop-opacity="0.12"/>
</linearGradient>
<linearGradient id="paint20_linear_4352_6251" x1="8.17229" y1="18.8659" x2="9.50171" y2="18.4966" gradientUnits="userSpaceOnUse">
<stop offset="0.209488" stop-color="#717995"/>
<stop offset="0.583159" stop-color="#A4A5BB"/>
<stop offset="0.986946" stop-color="#797D87"/>
</linearGradient>
<linearGradient id="paint21_linear_4352_6251" x1="7.02863" y1="13.6066" x2="8.95992" y2="20.5898" gradientUnits="userSpaceOnUse">
<stop offset="0.220856" stop-color="#FAFAFA"/>
<stop offset="1" stop-color="#D8D9E1"/>
</linearGradient>
<linearGradient id="paint22_linear_4352_6251" x1="6.94346" y1="13.6311" x2="10.2789" y2="22.7487" gradientUnits="userSpaceOnUse">
<stop stop-color="#F8F8F9" stop-opacity="0.46"/>
<stop offset="0.21882" stop-color="#F8F8F9" stop-opacity="0.67"/>
<stop offset="0.45675" stop-color="white" stop-opacity="0.46"/>
<stop offset="0.742389" stop-color="white" stop-opacity="0"/>
</linearGradient>
<linearGradient id="paint23_linear_4352_6251" x1="8.25012" y1="21.0213" x2="10.5597" y2="20.2748" gradientUnits="userSpaceOnUse">
<stop offset="0.209488" stop-color="#717995"/>
<stop offset="0.583159" stop-color="#A4A5BB"/>
<stop offset="0.986946" stop-color="#797D87"/>
</linearGradient>
<linearGradient id="paint24_linear_4352_6251" x1="9.14057" y1="19.9952" x2="8.57895" y2="23.9414" gradientUnits="userSpaceOnUse">
<stop stop-color="#EFEFEF"/>
<stop offset="0.411026" stop-color="#DEDFE6"/>
<stop offset="0.58979" stop-color="#D1D2D9"/>
<stop offset="1" stop-color="#D1D2D9"/>
</linearGradient>
<linearGradient id="paint25_linear_4352_6251" x1="5.32806" y1="19.062" x2="9.61999" y2="23.0364" gradientUnits="userSpaceOnUse">
<stop stop-color="#F8F8F9" stop-opacity="0.86"/>
<stop offset="0.319253" stop-color="#F8F8F9"/>
<stop offset="0.615431" stop-color="white" stop-opacity="0.88"/>
<stop offset="0.867925" stop-color="white"/>
</linearGradient>
<linearGradient id="paint26_linear_4352_6251" x1="10.8584" y1="23.2982" x2="12.3676" y2="22.4678" gradientUnits="userSpaceOnUse">
<stop offset="0.209488" stop-color="#717995"/>
<stop offset="0.583159" stop-color="#A4A5BB"/>
<stop offset="0.986946" stop-color="#797D87"/>
</linearGradient>
<linearGradient id="paint27_linear_4352_6251" x1="11.9326" y1="22.7384" x2="11.6287" y2="27.6222" gradientUnits="userSpaceOnUse">
<stop offset="0.0306468" stop-color="#DBDCE7"/>
<stop offset="0.274204" stop-color="#CBCCD7"/>
<stop offset="0.675444" stop-color="#D1D2D9"/>
</linearGradient>
<linearGradient id="paint28_linear_4352_6251" x1="11.1317" y1="22.9667" x2="13.3685" y2="27.9193" gradientUnits="userSpaceOnUse">
<stop stop-color="#F8F8F9" stop-opacity="0.78"/>
<stop offset="0.319253" stop-color="#F8F8F9" stop-opacity="0"/>
<stop offset="0.615431" stop-color="white" stop-opacity="0"/>
<stop offset="0.867925" stop-color="white" stop-opacity="0"/>
</linearGradient>
<linearGradient id="paint29_linear_4352_6251" x1="9.3661" y1="14.8384" x2="10.1338" y2="17.5064" gradientUnits="userSpaceOnUse">
<stop stop-color="white"/>
<stop offset="1" stop-color="white" stop-opacity="0"/>
</linearGradient>
<linearGradient id="paint30_linear_4352_6251" x1="12.0328" y1="14.0727" x2="16.926" y2="31.0792" gradientUnits="userSpaceOnUse">
<stop stop-color="#C4C4C4"/>
<stop offset="1" stop-color="#63687B"/>
</linearGradient>
<linearGradient id="paint31_linear_4352_6251" x1="11.8568" y1="20.7635" x2="12.3582" y2="23.8674" gradientUnits="userSpaceOnUse">
<stop offset="0.0495744" stop-color="#C4C4C4"/>
<stop offset="0.454268" stop-color="#EDEDED"/>
<stop offset="1" stop-color="#C4C4C4" stop-opacity="0"/>
</linearGradient>
<linearGradient id="paint32_linear_4352_6251" x1="14.5149" y1="6.68455" x2="25.7814" y2="26.8907" gradientUnits="userSpaceOnUse">
<stop stop-color="#FAFAFA"/>
<stop offset="1" stop-color="#C2C4CD"/>
</linearGradient>
<linearGradient id="paint33_linear_4352_6251" x1="14.4288" y1="8.4345" x2="24.0909" y2="24.5307" gradientUnits="userSpaceOnUse">
<stop stop-color="#CDCFD6"/>
<stop offset="1" stop-color="#EFEFF1"/>
</linearGradient>
<linearGradient id="paint34_linear_4352_6251" x1="15.3264" y1="7.81991" x2="25.7153" y2="24.6925" gradientUnits="userSpaceOnUse">
<stop stop-color="#DDDFE2"/>
<stop offset="1" stop-color="white"/>
</linearGradient>
<radialGradient id="paint35_radial_4352_6251" cx="0" cy="0" r="1" gradientUnits="userSpaceOnUse" gradientTransform="translate(19.0396 17.104) rotate(90) scale(10.7034 8.3228)">
<stop stop-color="#F5F7FF"/>
<stop offset="1" stop-color="#B3B5C5"/>
</radialGradient>
<linearGradient id="paint36_linear_4352_6251" x1="19.0403" y1="5.97656" x2="19.0403" y2="28.2301" gradientUnits="userSpaceOnUse">
<stop stop-color="white"/>
<stop offset="1" stop-color="#F2EDED" stop-opacity="0"/>
</linearGradient>
<linearGradient id="paint37_linear_4352_6251" x1="8.7647" y1="7.98963" x2="20.4281" y2="26.2266" gradientUnits="userSpaceOnUse">
<stop stop-color="white"/>
<stop offset="1" stop-color="#F2EDED" stop-opacity="0"/>
</linearGradient>
<linearGradient id="paint38_linear_4352_6251" x1="28.5674" y1="7.99083" x2="16.9041" y2="26.2278" gradientUnits="userSpaceOnUse">
<stop stop-color="white"/>
<stop offset="1" stop-color="#F2EDED" stop-opacity="0"/>
</linearGradient>
<linearGradient id="paint39_linear_4352_6251" x1="19.0396" y1="21.0245" x2="18.978" y2="27.0645" gradientUnits="userSpaceOnUse">
<stop stop-color="white" stop-opacity="0"/>
<stop offset="1" stop-color="#D0DBFF"/>
</linearGradient>
</defs>
</svg>
