<svg width="42" height="38" viewBox="0 0 42 38" fill="none" xmlns="http://www.w3.org/2000/svg">
<g clip-path="url(#clip0_3742_15822)">
<g opacity="0.4" filter="url(#filter0_f_3742_15822)">
<path d="M25.9382 20.2611L41.4727 28.3379L38.3827 33.6899L23.6207 24.2751L25.9382 20.2611Z" fill="url(#paint0_linear_3742_15822)"/>
</g>
<g opacity="0.4" filter="url(#filter1_f_3742_15822)">
<path d="M18.3518 24.3332L3.58984 33.748L0.499843 28.396L16.0343 20.3192L18.3518 24.3332Z" fill="url(#paint1_linear_3742_15822)"/>
</g>
<g opacity="0.4" filter="url(#filter2_f_3742_15822)">
<path d="M25.9382 19.6178L41.4727 11.541L38.3827 6.18898L23.6207 15.6038L25.9382 19.6178Z" fill="url(#paint2_linear_3742_15822)"/>
</g>
<g opacity="0.4" filter="url(#filter3_f_3742_15822)">
<path d="M18.3518 15.5457L3.58984 6.13086L0.499843 11.4829L16.0343 19.5597L18.3518 15.5457Z" fill="url(#paint3_linear_3742_15822)"/>
</g>
<g filter="url(#filter4_f_3742_15822)">
<path fill-rule="evenodd" clip-rule="evenodd" d="M20.8681 -0.331626C10.2935 -0.331626 1.72111 8.24078 1.72111 18.8154C1.72111 29.39 10.2935 37.9624 20.8681 37.9624V38.2577C10.1304 38.2577 1.42578 29.5531 1.42578 18.8154C1.42578 8.07768 10.1304 -0.626953 20.8681 -0.626953V-0.331626Z" fill="url(#paint4_linear_3742_15822)"/>
</g>
<g filter="url(#filter5_f_3742_15822)">
<path fill-rule="evenodd" clip-rule="evenodd" d="M20.9902 -0.331626C10.4156 -0.331626 2.20155 8.24079 2.20155 18.8154C2.20155 29.39 10.4156 37.9624 20.9902 37.9624V38.2577C10.2525 38.2577 1.18945 29.5531 1.18945 18.8154C1.18945 8.07768 10.2525 -0.626953 20.9902 -0.626953V-0.331626Z" fill="url(#paint5_linear_3742_15822)" fill-opacity="0.22"/>
</g>
<g filter="url(#filter6_f_3742_15822)">
<path fill-rule="evenodd" clip-rule="evenodd" d="M21.1495 -0.331626C31.7241 -0.331626 40.2965 8.24078 40.2965 18.8154C40.2965 29.39 31.7241 37.9624 21.1495 37.9624V38.2577C31.8872 38.2577 40.5918 29.5531 40.5918 18.8154C40.5918 8.07768 31.8872 -0.626953 21.1495 -0.626953V-0.331626Z" fill="url(#paint6_linear_3742_15822)"/>
</g>
<g filter="url(#filter7_f_3742_15822)">
<path fill-rule="evenodd" clip-rule="evenodd" d="M21.0254 -0.331626C31.6 -0.331626 39.8141 8.24079 39.8141 18.8154C39.8141 29.39 31.6 37.9624 21.0254 37.9624V38.2577C31.7632 38.2577 40.8262 29.5531 40.8262 18.8154C40.8262 8.07768 31.7632 -0.626953 21.0254 -0.626953V-0.331626Z" fill="url(#paint7_linear_3742_15822)" fill-opacity="0.22"/>
</g>
<g filter="url(#filter8_dd_3742_15822)">
<g filter="url(#filter9_d_3742_15822)">
<path d="M20.2907 6.88656L11.0108 11.9348C10.5407 12.1905 10.248 12.6828 10.248 13.2179L10.248 24.7576C10.248 25.2927 10.5407 25.785 11.0108 26.0408L20.2907 31.089C20.726 31.3257 21.2515 31.3257 21.6868 31.089L30.9668 26.0408C31.4368 25.785 31.7295 25.2927 31.7295 24.7576L31.7295 13.2179C31.7295 12.6828 31.4368 12.1905 30.9668 11.9348L21.6868 6.88656C21.2515 6.64979 20.726 6.64979 20.2907 6.88656Z" fill="url(#paint8_linear_3742_15822)"/>
<path d="M20.2827 8.77456L12.6427 12.9306C12.1743 13.1854 11.8828 13.6759 11.8828 14.209L11.8828 23.7213C11.8828 24.2544 12.1743 24.7449 12.6427 24.9996L20.2827 29.1557C20.7163 29.3916 21.2399 29.3916 21.6735 29.1557L29.3135 24.9996C29.7818 24.7449 30.0733 24.2544 30.0733 23.7213L30.0733 14.209C30.0733 13.6759 29.7818 13.1854 29.3135 12.9306L21.6735 8.77456C21.2399 8.53869 20.7163 8.53869 20.2827 8.77456Z" fill="url(#paint9_linear_3742_15822)"/>
<g filter="url(#filter10_f_3742_15822)">
<path fill-rule="evenodd" clip-rule="evenodd" d="M21.649 8.81425C21.2282 8.58534 20.7201 8.58534 20.2993 8.81425L12.6593 12.9703C12.2048 13.2176 11.9219 13.6935 11.9219 14.2109L11.9219 23.7232C11.9219 24.2406 12.2048 24.7166 12.6593 24.9638L20.2993 29.1199C20.7201 29.3488 21.2282 29.3488 21.649 29.1199L29.289 24.9638C29.7435 24.7166 30.0264 24.2406 30.0264 23.7232L30.0264 14.2109C30.0264 13.6935 29.7435 13.2176 29.289 12.9703L21.649 8.81425ZM20.2582 8.73877C20.7046 8.49593 21.2437 8.49593 21.6901 8.73877L29.3301 12.8949C29.8122 13.1571 30.1124 13.6621 30.1124 14.2109L30.1123 23.7232C30.1123 24.2721 29.8122 24.777 29.3301 25.0393L21.6901 29.1954C21.2437 29.4382 20.7046 29.4382 20.2582 29.1954L12.6182 25.0393C12.1361 24.777 11.8359 24.2721 11.8359 23.7232L11.8359 14.2109C11.8359 13.6621 12.1361 13.1571 12.6182 12.8949L20.2582 8.73877Z" fill="url(#paint10_linear_3742_15822)"/>
</g>
<g opacity="0.5">
<mask id="mask0_3742_15822" style="mask-type:alpha" maskUnits="userSpaceOnUse" x="12" y="9" width="18" height="20">
<path d="M20.3691 9.61724L13.3756 13.4182C12.9299 13.6605 12.6523 14.1271 12.6523 14.6344L12.6523 23.3342C12.6523 23.8416 12.9298 24.3082 13.3756 24.5505L20.3691 28.3514C20.7813 28.5755 21.2789 28.5755 21.6911 28.3514L28.6846 24.5505C29.1303 24.3082 29.4078 23.8416 29.4078 23.3343L29.4078 14.6344C29.4078 14.1271 29.1303 13.6605 28.6846 13.4182L21.6911 9.61724C21.2789 9.39321 20.7813 9.39321 20.3691 9.61724Z" fill="#A6D3DE"/>
</mask>
<g mask="url(#mask0_3742_15822)">
<path d="M20.3691 9.61724L13.3756 13.4182C12.9299 13.6605 12.6523 14.1271 12.6523 14.6344L12.6523 23.3342C12.6523 23.8416 12.9298 24.3082 13.3756 24.5505L20.3691 28.3514C20.7813 28.5755 21.2789 28.5755 21.6911 28.3514L28.6846 24.5505C29.1303 24.3082 29.4078 23.8416 29.4078 23.3343L29.4078 14.6344C29.4078 14.1271 29.1303 13.6605 28.6846 13.4182L21.6911 9.61724C21.2789 9.39321 20.7813 9.39321 20.3691 9.61724Z" fill="url(#paint11_radial_3742_15822)"/>
<path opacity="0.5" d="M19.6336 29.0933L19.3008 8.87109H22.7674L22.4346 29.0933H19.6336Z" fill="url(#paint12_linear_3742_15822)"/>
<path opacity="0.5" d="M19.5848 28.9149L9.18555 11.5684L12.1878 9.83503L22.0106 27.5143L19.5848 28.9149Z" fill="url(#paint13_linear_3742_15822)"/>
<path opacity="0.5" d="M19.2963 27.5172L29.1191 9.83789L32.1214 11.5712L21.7221 28.9177L19.2963 27.5172Z" fill="url(#paint14_linear_3742_15822)"/>
<path d="M12.6543 17.8242H29.4098V28.7057H12.6543V17.8242Z" fill="url(#paint15_linear_3742_15822)"/>
<g filter="url(#filter11_i_3742_15822)">
<path d="M20.3691 9.61724L13.3756 13.4182C12.9299 13.6605 12.6523 14.1271 12.6523 14.6344L12.6523 23.3342C12.6523 23.8416 12.9298 24.3082 13.3756 24.5505L20.3691 28.3514C20.7813 28.5755 21.2789 28.5755 21.6911 28.3514L28.6846 24.5505C29.1303 24.3082 29.4078 23.8416 29.4078 23.3343L29.4078 14.6344C29.4078 14.1271 29.1303 13.6605 28.6846 13.4182L21.6911 9.61724C21.2789 9.39321 20.7813 9.39321 20.3691 9.61724Z" fill="#6052B4" fill-opacity="0.01"/>
</g>
</g>
</g>
</g>
<g filter="url(#filter12_dii_3742_15822)">
<path d="M20.0883 23.2182V16.5065H19.1328V15.5395L21.0439 14.584H22.0109V23.2182H20.0883Z" fill="#C58F2F"/>
</g>
<g filter="url(#filter13_dii_3742_15822)">
<path d="M20.0883 23.2182V16.5065H19.1328V15.5395L21.0439 14.584H22.0109V23.2182H20.0883Z" fill="#C58F2F"/>
</g>
</g>
</g>
<defs>
<filter id="filter0_f_3742_15822" x="21.301" y="17.9416" width="22.4917" height="18.0679" filterUnits="userSpaceOnUse" color-interpolation-filters="sRGB">
<feFlood flood-opacity="0" result="BackgroundImageFix"/>
<feBlend mode="normal" in="SourceGraphic" in2="BackgroundImageFix" result="shape"/>
<feGaussianBlur stdDeviation="1.16004" result="effect1_foregroundBlur_3742_15822"/>
</filter>
<filter id="filter1_f_3742_15822" x="-1.82008" y="17.9983" width="22.4917" height="18.0699" filterUnits="userSpaceOnUse" color-interpolation-filters="sRGB">
<feFlood flood-opacity="0" result="BackgroundImageFix"/>
<feBlend mode="normal" in="SourceGraphic" in2="BackgroundImageFix" result="shape"/>
<feGaussianBlur stdDeviation="1.16004" result="effect1_foregroundBlur_3742_15822"/>
</filter>
<filter id="filter2_f_3742_15822" x="21.301" y="3.86937" width="22.4917" height="18.0679" filterUnits="userSpaceOnUse" color-interpolation-filters="sRGB">
<feFlood flood-opacity="0" result="BackgroundImageFix"/>
<feBlend mode="normal" in="SourceGraphic" in2="BackgroundImageFix" result="shape"/>
<feGaussianBlur stdDeviation="1.16004" result="effect1_foregroundBlur_3742_15822"/>
</filter>
<filter id="filter3_f_3742_15822" x="-1.82008" y="3.81078" width="22.4917" height="18.0699" filterUnits="userSpaceOnUse" color-interpolation-filters="sRGB">
<feFlood flood-opacity="0" result="BackgroundImageFix"/>
<feBlend mode="normal" in="SourceGraphic" in2="BackgroundImageFix" result="shape"/>
<feGaussianBlur stdDeviation="1.16004" result="effect1_foregroundBlur_3742_15822"/>
</filter>
<filter id="filter4_f_3742_15822" x="1.03201" y="-1.02072" width="20.2289" height="39.6723" filterUnits="userSpaceOnUse" color-interpolation-filters="sRGB">
<feFlood flood-opacity="0" result="BackgroundImageFix"/>
<feBlend mode="normal" in="SourceGraphic" in2="BackgroundImageFix" result="shape"/>
<feGaussianBlur stdDeviation="0.196884" result="effect1_foregroundBlur_3742_15822"/>
</filter>
<filter id="filter5_f_3742_15822" x="0.572891" y="-1.24352" width="21.0339" height="40.1179" filterUnits="userSpaceOnUse" color-interpolation-filters="sRGB">
<feFlood flood-opacity="0" result="BackgroundImageFix"/>
<feBlend mode="normal" in="SourceGraphic" in2="BackgroundImageFix" result="shape"/>
<feGaussianBlur stdDeviation="0.308281" result="effect1_foregroundBlur_3742_15822"/>
</filter>
<filter id="filter6_f_3742_15822" x="20.7566" y="-1.02072" width="20.2289" height="39.6723" filterUnits="userSpaceOnUse" color-interpolation-filters="sRGB">
<feFlood flood-opacity="0" result="BackgroundImageFix"/>
<feBlend mode="normal" in="SourceGraphic" in2="BackgroundImageFix" result="shape"/>
<feGaussianBlur stdDeviation="0.196884" result="effect1_foregroundBlur_3742_15822"/>
</filter>
<filter id="filter7_f_3742_15822" x="20.4088" y="-1.24352" width="21.0339" height="40.1179" filterUnits="userSpaceOnUse" color-interpolation-filters="sRGB">
<feFlood flood-opacity="0" result="BackgroundImageFix"/>
<feBlend mode="normal" in="SourceGraphic" in2="BackgroundImageFix" result="shape"/>
<feGaussianBlur stdDeviation="0.308281" result="effect1_foregroundBlur_3742_15822"/>
</filter>
<filter id="filter8_dd_3742_15822" x="2.35696" y="-0.656028" width="37.2626" height="40.3388" filterUnits="userSpaceOnUse" color-interpolation-filters="sRGB">
<feFlood flood-opacity="0" result="BackgroundImageFix"/>
<feColorMatrix in="SourceAlpha" type="matrix" values="0 0 0 0 0 0 0 0 0 0 0 0 0 0 0 0 0 0 127 0" result="hardAlpha"/>
<feOffset/>
<feGaussianBlur stdDeviation="1.31518"/>
<feColorMatrix type="matrix" values="0 0 0 0 0.991667 0 0 0 0 0.801597 0 0 0 0 0.516493 0 0 0 1 0"/>
<feBlend mode="normal" in2="BackgroundImageFix" result="effect1_dropShadow_3742_15822"/>
<feColorMatrix in="SourceAlpha" type="matrix" values="0 0 0 0 0 0 0 0 0 0 0 0 0 0 0 0 0 0 127 0" result="hardAlpha"/>
<feOffset dy="0.526072"/>
<feGaussianBlur stdDeviation="3.94554"/>
<feColorMatrix type="matrix" values="0 0 0 0 1 0 0 0 0 0.722667 0 0 0 0 0.466667 0 0 0 0.6 0"/>
<feBlend mode="normal" in2="effect1_dropShadow_3742_15822" result="effect2_dropShadow_3742_15822"/>
<feBlend mode="normal" in="SourceGraphic" in2="effect2_dropShadow_3742_15822" result="shape"/>
</filter>
<filter id="filter9_d_3742_15822" x="9.73249" y="6.70898" width="22.5116" height="25.7596" filterUnits="userSpaceOnUse" color-interpolation-filters="sRGB">
<feFlood flood-opacity="0" result="BackgroundImageFix"/>
<feColorMatrix in="SourceAlpha" type="matrix" values="0 0 0 0 0 0 0 0 0 0 0 0 0 0 0 0 0 0 127 0" result="hardAlpha"/>
<feOffset dy="0.687405"/>
<feGaussianBlur stdDeviation="0.257777"/>
<feColorMatrix type="matrix" values="0 0 0 0 0.4375 0 0 0 0 0.287401 0 0 0 0 0.111198 0 0 0 0.6 0"/>
<feBlend mode="normal" in2="BackgroundImageFix" result="effect1_dropShadow_3742_15822"/>
<feBlend mode="normal" in="SourceGraphic" in2="effect1_dropShadow_3742_15822" result="shape"/>
</filter>
<filter id="filter10_f_3742_15822" x="11.8102" y="8.53086" width="18.3289" height="20.8719" filterUnits="userSpaceOnUse" color-interpolation-filters="sRGB">
<feFlood flood-opacity="0" result="BackgroundImageFix"/>
<feBlend mode="normal" in="SourceGraphic" in2="BackgroundImageFix" result="shape"/>
<feGaussianBlur stdDeviation="0.0128888" result="effect1_foregroundBlur_3742_15822"/>
</filter>
<filter id="filter11_i_3742_15822" x="12.6523" y="9.44922" width="16.7559" height="19.0703" filterUnits="userSpaceOnUse" color-interpolation-filters="sRGB">
<feFlood flood-opacity="0" result="BackgroundImageFix"/>
<feBlend mode="normal" in="SourceGraphic" in2="BackgroundImageFix" result="shape"/>
<feColorMatrix in="SourceAlpha" type="matrix" values="0 0 0 0 0 0 0 0 0 0 0 0 0 0 0 0 0 0 127 0" result="hardAlpha"/>
<feOffset/>
<feGaussianBlur stdDeviation="0.577776"/>
<feComposite in2="hardAlpha" operator="arithmetic" k2="-1" k3="1"/>
<feColorMatrix type="matrix" values="0 0 0 0 0.458333 0 0 0 0 0.256743 0 0 0 0 0.0706597 0 0 0 1 0"/>
<feBlend mode="normal" in2="shape" result="effect1_innerShadow_3742_15822"/>
</filter>
<filter id="filter12_dii_3742_15822" x="18.3372" y="13.7884" width="4.47004" height="11.0215" filterUnits="userSpaceOnUse" color-interpolation-filters="sRGB">
<feFlood flood-opacity="0" result="BackgroundImageFix"/>
<feColorMatrix in="SourceAlpha" type="matrix" values="0 0 0 0 0 0 0 0 0 0 0 0 0 0 0 0 0 0 127 0" result="hardAlpha"/>
<feOffset dy="0.795564"/>
<feGaussianBlur stdDeviation="0.397782"/>
<feComposite in2="hardAlpha" operator="out"/>
<feColorMatrix type="matrix" values="0 0 0 0 1 0 0 0 0 1 0 0 0 0 1 0 0 0 0.25 0"/>
<feBlend mode="normal" in2="BackgroundImageFix" result="effect1_dropShadow_3742_15822"/>
<feBlend mode="normal" in="SourceGraphic" in2="effect1_dropShadow_3742_15822" result="shape"/>
<feColorMatrix in="SourceAlpha" type="matrix" values="0 0 0 0 0 0 0 0 0 0 0 0 0 0 0 0 0 0 127 0" result="hardAlpha"/>
<feOffset dy="0.795564"/>
<feGaussianBlur stdDeviation="0.397782"/>
<feComposite in2="hardAlpha" operator="arithmetic" k2="-1" k3="1"/>
<feColorMatrix type="matrix" values="0 0 0 0 0.839216 0 0 0 0 0.662745 0 0 0 0 0.411765 0 0 0 1 0"/>
<feBlend mode="normal" in2="shape" result="effect2_innerShadow_3742_15822"/>
<feColorMatrix in="SourceAlpha" type="matrix" values="0 0 0 0 0 0 0 0 0 0 0 0 0 0 0 0 0 0 127 0" result="hardAlpha"/>
<feOffset dy="-0.994456"/>
<feGaussianBlur stdDeviation="0.397782"/>
<feComposite in2="hardAlpha" operator="arithmetic" k2="-1" k3="1"/>
<feColorMatrix type="matrix" values="0 0 0 0 1 0 0 0 0 0.911607 0 0 0 0 0.740023 0 0 0 0.25 0"/>
<feBlend mode="normal" in2="effect2_innerShadow_3742_15822" result="effect3_innerShadow_3742_15822"/>
</filter>
<filter id="filter13_dii_3742_15822" x="18.3372" y="13.7884" width="4.47004" height="11.0215" filterUnits="userSpaceOnUse" color-interpolation-filters="sRGB">
<feFlood flood-opacity="0" result="BackgroundImageFix"/>
<feColorMatrix in="SourceAlpha" type="matrix" values="0 0 0 0 0 0 0 0 0 0 0 0 0 0 0 0 0 0 127 0" result="hardAlpha"/>
<feOffset dy="0.795564"/>
<feGaussianBlur stdDeviation="0.397782"/>
<feComposite in2="hardAlpha" operator="out"/>
<feColorMatrix type="matrix" values="0 0 0 0 1 0 0 0 0 1 0 0 0 0 1 0 0 0 0.25 0"/>
<feBlend mode="normal" in2="BackgroundImageFix" result="effect1_dropShadow_3742_15822"/>
<feBlend mode="normal" in="SourceGraphic" in2="effect1_dropShadow_3742_15822" result="shape"/>
<feColorMatrix in="SourceAlpha" type="matrix" values="0 0 0 0 0 0 0 0 0 0 0 0 0 0 0 0 0 0 127 0" result="hardAlpha"/>
<feOffset dy="0.795564"/>
<feGaussianBlur stdDeviation="0.397782"/>
<feComposite in2="hardAlpha" operator="arithmetic" k2="-1" k3="1"/>
<feColorMatrix type="matrix" values="0 0 0 0 0.839216 0 0 0 0 0.662745 0 0 0 0 0.411765 0 0 0 1 0"/>
<feBlend mode="normal" in2="shape" result="effect2_innerShadow_3742_15822"/>
<feColorMatrix in="SourceAlpha" type="matrix" values="0 0 0 0 0 0 0 0 0 0 0 0 0 0 0 0 0 0 127 0" result="hardAlpha"/>
<feOffset dy="-0.994456"/>
<feGaussianBlur stdDeviation="0.397782"/>
<feComposite in2="hardAlpha" operator="arithmetic" k2="-1" k3="1"/>
<feColorMatrix type="matrix" values="0 0 0 0 1 0 0 0 0 0.911607 0 0 0 0 0.740023 0 0 0 0.25 0"/>
<feBlend mode="normal" in2="effect2_innerShadow_3742_15822" result="effect3_innerShadow_3742_15822"/>
</filter>
<linearGradient id="paint0_linear_3742_15822" x1="39.9277" y1="31.0139" x2="24.7795" y2="22.2681" gradientUnits="userSpaceOnUse">
<stop stop-color="#FFF6D6" stop-opacity="0"/>
<stop offset="1" stop-color="#90752F"/>
</linearGradient>
<linearGradient id="paint1_linear_3742_15822" x1="2.04484" y1="31.072" x2="17.193" y2="22.3262" gradientUnits="userSpaceOnUse">
<stop stop-color="#FFF6D6" stop-opacity="0"/>
<stop offset="1" stop-color="#90752F"/>
</linearGradient>
<linearGradient id="paint2_linear_3742_15822" x1="39.9277" y1="8.865" x2="24.7795" y2="17.6108" gradientUnits="userSpaceOnUse">
<stop stop-color="#FFF6D6" stop-opacity="0"/>
<stop offset="1" stop-color="#90752F"/>
</linearGradient>
<linearGradient id="paint3_linear_3742_15822" x1="2.04484" y1="8.80688" x2="17.193" y2="17.5527" gradientUnits="userSpaceOnUse">
<stop stop-color="#FFF6D6" stop-opacity="0"/>
<stop offset="1" stop-color="#90752F"/>
</linearGradient>
<linearGradient id="paint4_linear_3742_15822" x1="-0.592285" y1="18.8154" x2="11.6146" y2="18.8154" gradientUnits="userSpaceOnUse">
<stop stop-color="#FFF0DA"/>
<stop offset="0.321814" stop-color="#FFE6C0" stop-opacity="0.22"/>
<stop offset="1" stop-color="#FFE6C0" stop-opacity="0"/>
</linearGradient>
<linearGradient id="paint5_linear_3742_15822" x1="1.51797" y1="18.8453" x2="11.7366" y2="18.8154" gradientUnits="userSpaceOnUse">
<stop stop-color="#FFC164"/>
<stop offset="0.321814" stop-color="#FFE6C0" stop-opacity="0"/>
<stop offset="1" stop-color="#FFE6C0" stop-opacity="0"/>
</linearGradient>
<linearGradient id="paint6_linear_3742_15822" x1="42.6099" y1="18.8154" x2="30.403" y2="18.8154" gradientUnits="userSpaceOnUse">
<stop stop-color="#FFF0DA"/>
<stop offset="0.321814" stop-color="#FFE6C0" stop-opacity="0.22"/>
<stop offset="1" stop-color="#FFE6C0" stop-opacity="0"/>
</linearGradient>
<linearGradient id="paint7_linear_3742_15822" x1="40.4977" y1="18.8453" x2="30.279" y2="18.8154" gradientUnits="userSpaceOnUse">
<stop stop-color="#FFC164"/>
<stop offset="0.321814" stop-color="#FFE6C0" stop-opacity="0"/>
<stop offset="1" stop-color="#FFE6C0" stop-opacity="0"/>
</linearGradient>
<linearGradient id="paint8_linear_3742_15822" x1="16.4777" y1="9.51424" x2="26.1443" y2="28.7186" gradientUnits="userSpaceOnUse">
<stop stop-color="#FFF5DE"/>
<stop offset="1" stop-color="#CFA365"/>
</linearGradient>
<linearGradient id="paint9_linear_3742_15822" x1="16.3939" y1="11.1029" x2="24.7287" y2="26.4836" gradientUnits="userSpaceOnUse">
<stop stop-color="#D2A86C"/>
<stop offset="1" stop-color="#F8E6C0"/>
</linearGradient>
<linearGradient id="paint10_linear_3742_15822" x1="17.2922" y1="10.5464" x2="26.2715" y2="26.7004" gradientUnits="userSpaceOnUse">
<stop stop-color="#FFF6E7"/>
<stop offset="1" stop-color="#FFF8EC"/>
</linearGradient>
<radialGradient id="paint11_radial_3742_15822" cx="0" cy="0" r="1" gradientUnits="userSpaceOnUse" gradientTransform="translate(21.0301 18.9843) rotate(90) scale(9.72637 8.37775)">
<stop stop-color="#FFE4BA"/>
<stop offset="1" stop-color="#DEA44D"/>
</radialGradient>
<linearGradient id="paint12_linear_3742_15822" x1="21.0341" y1="8.87109" x2="21.0341" y2="29.0933" gradientUnits="userSpaceOnUse">
<stop stop-color="white"/>
<stop offset="1" stop-color="#F2EDED" stop-opacity="0"/>
</linearGradient>
<linearGradient id="paint13_linear_3742_15822" x1="10.6867" y1="10.7017" x2="20.7977" y2="28.2146" gradientUnits="userSpaceOnUse">
<stop stop-color="white"/>
<stop offset="1" stop-color="#F2EDED" stop-opacity="0"/>
</linearGradient>
<linearGradient id="paint14_linear_3742_15822" x1="30.6202" y1="10.7046" x2="20.5092" y2="28.2175" gradientUnits="userSpaceOnUse">
<stop stop-color="white"/>
<stop offset="1" stop-color="#F2EDED" stop-opacity="0"/>
</linearGradient>
<linearGradient id="paint15_linear_3742_15822" x1="21.032" y1="22.5427" x2="20.9815" y2="28.0315" gradientUnits="userSpaceOnUse">
<stop stop-color="white" stop-opacity="0"/>
<stop offset="1" stop-color="#FFF1E3"/>
</linearGradient>
<clipPath id="clip0_3742_15822">
<rect width="41" height="37.0108" fill="white" transform="translate(0.5 0.494141)"/>
</clipPath>
</defs>
</svg>
