<svg width="73" height="75" viewBox="0 0 73 75" fill="none" xmlns="http://www.w3.org/2000/svg">
<circle cx="22.5" cy="22.5" r="22.5" fill="#29A9EA"/>
<g filter="url(#filter0_b_1148_19960)">
<path fill-rule="evenodd" clip-rule="evenodd" d="M39 72C57.2254 72 72 59.464 72 44C72 28.536 57.2254 16 39 16C20.7746 16 6 28.536 6 44C6 52.6576 10.631 60.3976 17.9058 65.5337L16.5 73.5L25.6058 69.5975C29.6991 71.1418 34.2314 72 39 72Z" fill="white" fill-opacity="0.2"/>
<path d="M17.9058 65.5337L18.3982 65.6206L18.4533 65.3082L18.1942 65.1252L17.9058 65.5337ZM16.5 73.5L16.0076 73.4131L15.8469 74.3239L16.697 73.9596L16.5 73.5ZM25.6058 69.5975L25.7823 69.1297L25.5939 69.0586L25.4088 69.1379L25.6058 69.5975ZM71.5 44C71.5 59.114 57.0294 71.5 39 71.5V72.5C57.4214 72.5 72.5 59.814 72.5 44H71.5ZM39 16.5C57.0294 16.5 71.5 28.886 71.5 44H72.5C72.5 28.186 57.4214 15.5 39 15.5V16.5ZM6.5 44C6.5 28.886 20.9706 16.5 39 16.5V15.5C20.5786 15.5 5.5 28.186 5.5 44H6.5ZM18.1942 65.1252C11.0291 60.0666 6.5 52.469 6.5 44H5.5C5.5 52.8463 10.2329 60.7285 17.6174 65.9421L18.1942 65.1252ZM16.9924 73.5869L18.3982 65.6206L17.4134 65.4468L16.0076 73.4131L16.9924 73.5869ZM25.4088 69.1379L16.303 73.0404L16.697 73.9596L25.8027 70.0571L25.4088 69.1379ZM39 71.5C34.2914 71.5 29.8189 70.6526 25.7823 69.1297L25.4293 70.0653C29.5793 71.631 34.1714 72.5 39 72.5V71.5Z" fill="url(#paint0_linear_1148_19960)"/>
</g>
<path d="M21.9618 42.7586L41.0232 34.7445C42.9048 33.9097 49.2858 31.2384 49.2858 31.2384C49.2858 31.2384 52.2309 30.0696 51.9855 32.908C51.9037 34.0767 51.2492 38.1672 50.5947 42.5916L48.5495 55.698C48.5495 55.698 48.3859 57.618 46.9952 57.9519C45.6044 58.2858 43.3138 56.7832 42.9048 56.4493C42.5775 56.1988 36.7691 52.4422 34.6421 50.6057C34.0695 50.1048 33.415 49.103 34.7239 47.9343C37.669 45.1795 41.1868 41.7568 43.3138 39.5863C44.2955 38.5846 45.2772 36.2472 41.1868 39.0855L29.6518 47.0161C29.6518 47.0161 28.3429 47.8509 25.8886 47.0995C23.4344 46.3482 20.5711 45.3465 20.5711 45.3465C20.5711 45.3465 18.6077 44.0943 21.9618 42.7586Z" fill="white"/>
<defs>
<filter id="filter0_b_1148_19960" x="-14.5" y="-4.5" width="107" height="98.824" filterUnits="userSpaceOnUse" color-interpolation-filters="sRGB">
<feFlood flood-opacity="0" result="BackgroundImageFix"/>
<feGaussianBlur in="BackgroundImageFix" stdDeviation="10"/>
<feComposite in2="SourceAlpha" operator="in" result="effect1_backgroundBlur_1148_19960"/>
<feBlend mode="normal" in="SourceGraphic" in2="effect1_backgroundBlur_1148_19960" result="shape"/>
</filter>
<linearGradient id="paint0_linear_1148_19960" x1="17" y1="12" x2="56" y2="74" gradientUnits="userSpaceOnUse">
<stop stop-color="white"/>
<stop offset="1" stop-color="white" stop-opacity="0"/>
</linearGradient>
</defs>
</svg>
