<svg width="337" height="78" viewBox="0 0 337 78" fill="none" xmlns="http://www.w3.org/2000/svg">
<rect width="337" height="78" rx="8" fill="url(#paint0_radial_4058_9249)"/>
<mask id="mask0_4058_9249" style="mask-type:alpha" maskUnits="userSpaceOnUse" x="0" y="0" width="337" height="78">
<rect x="0.234367" y="0.234367" width="336.531" height="77.5313" rx="8.20283" fill="#045AFC" stroke="#C8C8C8" stroke-width="0.468733"/>
</mask>
<g mask="url(#mask0_4058_9249)">
<g opacity="0.1">
<path d="M237.353 23.7977L253.948 38.6522C255.678 40.2004 256.503 42.5263 256.128 44.7942L252.24 68.3174C251.865 70.5853 250.344 72.4697 248.222 73.2934L227.866 81.1974C225.569 82.089 222.943 81.5951 221.071 79.9194L204.476 65.0648C202.747 63.5166 201.921 61.1908 202.296 58.9228L206.184 35.3997C206.559 33.1317 208.081 31.2474 210.202 30.4236L230.559 22.5196C232.855 21.628 235.481 22.1219 237.353 23.7977Z" stroke="#C8C8C8" stroke-width="1.18359"/>
<path d="M277.244 31.3011L293.839 46.1556C295.568 47.7038 296.394 50.0297 296.019 52.2976L292.131 75.8208C291.756 78.0887 290.234 79.9731 288.113 80.7969L267.756 88.7008C265.46 89.5925 262.834 89.0986 260.962 87.4228L244.367 72.5682C242.637 71.02 241.812 68.6942 242.187 66.4262L246.075 42.9031C246.45 40.6351 247.971 38.7508 250.093 37.927L270.449 30.0231C272.746 29.1314 275.372 29.6253 277.244 31.3011Z" stroke="#C8C8C8" stroke-width="1.18359"/>
<path d="M245.254 -24.0012L261.848 -9.14662C263.578 -7.59843 264.404 -5.27256 264.029 -3.00461L260.141 20.5185C259.766 22.7865 258.244 24.6708 256.123 25.4946L235.766 33.3986C233.47 34.2902 230.844 33.7963 228.972 32.1205L212.377 17.266C210.647 15.7178 209.822 13.3919 210.196 11.124L214.085 -12.3992C214.459 -14.6671 215.981 -16.5515 218.103 -17.3753L238.459 -25.2792C240.756 -26.1709 243.381 -25.6769 245.254 -24.0012Z" stroke="#C8C8C8" stroke-width="1.18359"/>
<path d="M285.144 -16.4973L301.739 -1.64272C303.469 -0.0945238 304.294 2.23134 303.919 4.4993L300.031 28.0225C299.656 30.2904 298.135 32.1748 296.013 32.9985L275.657 40.9025C273.36 41.7941 270.734 41.3002 268.862 39.6244L252.267 24.7699C250.538 23.2217 249.712 20.8958 250.087 18.6279L253.975 -4.89527C254.35 -7.16322 255.872 -9.04757 257.993 -9.87135L278.35 -17.7753C280.646 -18.6669 283.272 -18.173 285.144 -16.4973Z" stroke="#C8C8C8" stroke-width="1.18359"/>
<path d="M315.492 38.4964L332.087 53.3509C333.816 54.8991 334.642 57.225 334.267 59.493L330.379 83.0161C330.004 85.2841 328.482 87.1684 326.361 87.9922L306.004 95.8961C303.708 96.7878 301.082 96.2939 299.21 94.6181L282.615 79.7636C280.886 78.2154 280.06 75.8895 280.435 73.6215L284.323 50.0984C284.698 47.8304 286.219 45.9461 288.341 45.1223L308.698 37.2184C310.994 36.3267 313.62 36.8206 315.492 38.4964Z" stroke="#C8C8C8" stroke-width="1.18359"/>
<path d="M355.382 45.9993L371.977 60.8539C373.707 62.4021 374.533 64.7279 374.158 66.9959L370.27 90.519C369.895 92.787 368.373 94.6713 366.251 95.4951L345.895 103.399C343.598 104.291 340.973 103.797 339.101 102.121L322.506 87.2665C320.776 85.7183 319.95 83.3924 320.325 81.1245L324.213 57.6013C324.588 55.3334 326.11 53.449 328.232 52.6252L348.588 44.7213C350.885 43.8296 353.51 44.3235 355.382 45.9993Z" stroke="#C8C8C8" stroke-width="1.18359"/>
<path d="M323.392 -9.30243L339.987 5.55211C341.717 7.1003 342.542 9.42617 342.167 11.6941L338.279 35.2173C337.904 37.4852 336.383 39.3696 334.261 40.1934L313.905 48.0973C311.608 48.989 308.982 48.495 307.11 46.8193L290.515 31.9647C288.786 30.4165 287.96 28.0907 288.335 25.8227L292.223 2.29956C292.598 0.0316027 294.12 -1.85274 296.241 -2.67652L316.598 -10.5805C318.894 -11.4721 321.52 -10.9782 323.392 -9.30243Z" stroke="#C8C8C8" stroke-width="1.18359"/>
<path d="M363.283 -1.79853L379.878 13.056C381.607 14.6042 382.433 16.9301 382.058 19.198L378.17 42.7212C377.795 44.9891 376.274 46.8735 374.152 47.6973L353.795 55.6012C351.499 56.4929 348.873 55.9989 347.001 54.3232L330.406 39.4686C328.677 37.9204 327.851 35.5946 328.226 33.3266L332.114 9.80346C332.489 7.53551 334.01 5.65116 336.132 4.82738L356.489 -3.07655C358.785 -3.96821 361.411 -3.4743 363.283 -1.79853Z" stroke="#C8C8C8" stroke-width="1.18359"/>
<g opacity="0.6">
<path d="M86.7848 -53.8102L103.38 -38.9557C105.109 -37.4075 105.935 -35.0816 105.56 -32.8137L101.672 -9.29054C101.297 -7.02259 99.7755 -5.13824 97.6538 -4.31446L77.2972 3.58947C75.0008 4.48114 72.375 3.98723 70.5029 2.31145L53.9081 -12.5431C52.1785 -14.0913 51.3528 -16.4171 51.7277 -18.6851L55.6158 -42.2083C55.9907 -44.4762 57.5123 -46.3606 59.6339 -47.1843L79.9905 -55.0883C82.287 -55.9799 84.9127 -55.486 86.7848 -53.8102Z" stroke="#C8C8C8" stroke-width="1.18359"/>
<path d="M126.674 -46.3068L143.268 -31.4523C144.998 -29.9041 145.824 -27.5782 145.449 -25.3103L141.561 -1.78712C141.186 0.480833 139.664 2.36518 137.543 3.18896L117.186 11.0929C114.889 11.9846 112.264 11.4906 110.392 9.81487L93.7967 -5.03967C92.0671 -6.58786 91.2415 -8.91373 91.6164 -11.1817L95.5045 -34.7048C95.8794 -36.9728 97.4009 -38.8571 99.5226 -39.6809L119.879 -47.5849C122.176 -48.4765 124.801 -47.9826 126.674 -46.3068Z" stroke="#C8C8C8" stroke-width="1.18359"/>
</g>
<g opacity="0.6">
<path d="M157.023 8.68585L173.618 23.5404C175.348 25.0886 176.173 27.4144 175.798 29.6824L171.91 53.2056C171.535 55.4735 170.014 57.3579 167.892 58.1816L147.536 66.0856C145.239 66.9772 142.613 66.4833 140.741 64.8075L124.146 49.953C122.417 48.4048 121.591 46.0789 121.966 43.811L125.854 20.2878C126.229 18.0199 127.751 16.1355 129.872 15.3118L150.229 7.40782C152.525 6.51616 155.151 7.01007 157.023 8.68585Z" stroke="#C8C8C8" stroke-width="1.18359"/>
<path d="M196.912 16.1898L213.507 31.0443C215.236 32.5925 216.062 34.9184 215.687 37.1863L211.799 60.7095C211.424 62.9774 209.902 64.8618 207.781 65.6855L187.424 73.5895C185.128 74.4811 182.502 73.9872 180.63 72.3114L164.035 57.4569C162.305 55.9087 161.48 53.5829 161.855 51.3149L165.743 27.7917C166.118 25.5238 167.639 23.6394 169.761 22.8157L190.117 14.9117C192.414 14.0201 195.04 14.514 196.912 16.1898Z" stroke="#C8C8C8" stroke-width="1.18359"/>
<path d="M164.924 -39.1125L181.518 -24.258C183.248 -22.7098 184.074 -20.3839 183.699 -18.1159L179.811 5.40722C179.436 7.67517 177.914 9.55952 175.793 10.3833L155.436 18.2872C153.139 19.1789 150.514 18.685 148.642 17.0092L132.047 2.15467C130.317 0.606473 129.491 -1.71939 129.866 -3.98735L133.754 -27.5105C134.129 -29.7785 135.651 -31.6628 137.773 -32.4866L158.129 -40.3905C160.426 -41.2822 163.051 -40.7883 164.924 -39.1125Z" stroke="#C8C8C8" stroke-width="1.18359"/>
<path d="M204.814 -31.6096L221.409 -16.755C223.139 -15.2068 223.964 -12.881 223.589 -10.613L219.701 12.9101C219.326 15.1781 217.805 17.0624 215.683 17.8862L195.327 25.7902C193.03 26.6818 190.404 26.1879 188.532 24.5121L171.937 9.6576C170.208 8.1094 169.382 5.78354 169.757 3.51558L173.645 -20.0076C174.02 -22.2755 175.542 -24.1599 177.663 -24.9837L198.02 -32.8876C200.316 -33.7792 202.942 -33.2853 204.814 -31.6096Z" stroke="#C8C8C8" stroke-width="1.18359"/>
</g>
</g>
</g>
<defs>
<radialGradient id="paint0_radial_4058_9249" cx="0" cy="0" r="1" gradientUnits="userSpaceOnUse" gradientTransform="translate(31 6.65856) rotate(33.6931) scale(128.603 165.224)">
<stop stop-color="#9E5AD7" stop-opacity="0"/>
<stop offset="0.974063" stop-color="#B830CC" stop-opacity="0.8"/>
</radialGradient>
</defs>
</svg>
